<svg xmlns="http://www.w3.org/2000/svg" viewBox="0 0 1184.88 337.56" width="600">
    <g>
      <path fill="#3a21ce" d="M505.06 122.67V223.9h-30.37v-9.31c-4.66 7.08-13.37 12.14-26.32 12.14-18.83 0-32.4-14.57-32.4-39.88v-64.18h30.37v61.55c0 10.12 5.87 14.57 13.57 14.57 9.11 0 14.78-5.06 14.78-17v-59.12zM598.83 193.53c0 23.28-19.84 33.2-42.11 33.2s-42.12-10.93-42.12-36h29.56c0 5.88 4.05 9.72 12.56 9.72s11.74-2.83 11.74-6.88c0-14.58-52.84-1.22-52.84-40.49 0-22.88 19.84-33.21 41.1-33.21 20.24 0 40.08 10.94 40.08 36h-29.56c0-5.87-4-9.72-10.52-9.72-7.49 0-10.72 2.85-10.72 6.85 0 15 52.83 1.05 52.83 40.53zM661.33 203.74c7.29 0 14.37-3.24 17.41-7.69l29.56-.2c-6.68 21.26-24.5 32.39-47.38 32.39-33.61 0-55.07-23.28-55.07-53.45s22.27-53.45 54.26-53.45c29.56 0 51 22.88 51 53.45a58.9 58.9 0 01-1.21 12.15h-72.26c3.64 11.94 13.16 16.8 23.69 16.8zM681 163.86c-3.24-11.54-12.15-15.59-21.06-15.59-11.34 0-19.23 5.47-22.47 15.59zM777.39 122.15v34.42c-12.55-2-26.32 3-26.32 21.06v47.78H720.7V124.18h30.37v16c3.45-11.95 13.77-18.03 26.32-18.03zM869 195c0 23.28-19.85 33.2-42.12 33.2s-42.11-10.93-42.11-36h29.56c0 5.88 4.05 9.72 12.55 9.72s11.75-2.83 11.75-6.88c0-14.58-52.85-1.22-52.85-40.49 0-22.88 19.84-33.21 41.1-33.21 20.25 0 40.09 10.93 40.09 36h-29.6c0-5.87-4-9.72-10.53-9.72-7.49 0-10.73 2.84-10.73 6.89 0 15.02 52.89 1.05 52.89 40.49zM966.47 161.23v64.18H936.1v-61.55c0-10.12-5.87-14.58-13.56-14.58-9.11 0-14.78 5.06-14.78 17v59.12h-30.37V124.18h30.37v9.31c4.65-7.09 13.36-12.15 26.32-12.15 18.83 0 32.39 14.58 32.39 39.89zM1064.55 161.63v63.78H1035v-7.9c-5.47 6.28-13.37 10.73-26.12 10.73-17.82 0-33.41-10.53-33.41-31.58s15.59-31.59 33.41-31.59c12.75 0 20.65 3.65 26.12 7.7v-9.11c0-9.92-4-14.38-12.56-14.38s-12.55 4.46-12.55 10.33h-29.57c0-25.31 19.84-38.27 42.11-38.27s42.12 12.96 42.12 40.29zm-29.56 35c0-6.28-5.47-10.13-15.39-10.13-9.31 0-13.77 4.26-13.77 10.13s4.46 10.12 13.77 10.12c9.92.03 15.4-4.22 15.4-10.09zM1184.88 174.79c0 30.17-21.87 53.45-48.39 53.45-13.57 0-23.49-4.65-30.17-12.35v50H1076V124.18h30.37v9.51c6.68-7.69 16.6-12.35 30.17-12.35 26.46 0 48.34 23.28 48.34 53.45zm-30.37 0c0-15.18-10.13-24.7-24.1-24.7s-24.09 9.52-24.09 24.7 10.12 24.7 24.09 24.7 24.1-9.49 24.1-24.7zM332.64 128.45a168.73 168.73 0 00-308.22-47A167.6 167.6 0 005 209.15C23.89 286 93 337.56 168.81 337.56a169.26 169.26 0 0040.34-4.92c90.34-22.25 145.74-113.85 123.49-204.19zM96.59 288.2a139.54 139.54 0 0138.84-254.89 140.84 140.84 0 0133.62-4.1 139.57 139.57 0 0133.12 275.08A138.59 138.59 0 0196.59 288.2z"/>
      <path fill="#3a21ce" d="M258.93 143.43c-3.7-8.8-16.24-8.14-19.46.85A94.74 94.74 0 0192 187.09a8.68 8.68 0 00-13.93 8.13 96.88 96.88 0 004.42 17.2c15.52 43.31 60.93 69.44 106.17 61.1a94.77 94.77 0 0075-115.88 95.81 95.81 0 00-4.73-14.21z"/>
    </g>
</svg>
